Coordinates
version=1
nRows=32
nColumns=22
inDegrees=yes

Units are S.I. units (second, meters, Newtons, ...)
If the header above contains a line with 'inDegrees', this indicates whether rotational values are in degrees (yes) or radians (no).

endheader
time	pelvis_tilt	pelvis_list	pelvis_rotation	pelvis_tx	pelvis_ty	pelvis_tz	hip_flexion_r	hip_adduction_r	hip_rotation_r	knee_angle_r	ankle_angle_r	subtalar_angle_r	hip_flexion_l	hip_adduction_l	hip_rotation_l	knee_angle_l	ankle_angle_l	subtalar_angle_l	lumbar_extension	lumbar_bending	lumbar_rotation
      3.63000000	     -5.37995657	     -1.04468514	     15.82099331	      0.01276226	      0.91901815	     -0.63968445	      1.89480130	      7.80547442	     10.63183636	    -52.58932770	    -11.67905402	      8.65877486	     32.17396081	     -1.75902453	     14.94447321	    -30.31586340	      7.67052707	     11.44741230	     -0.10353743	      1.08026242	     -4.76870748
      3.64000000	     -5.45440917	     -0.47128136	     15.34927631	      0.02214115	      0.92037009	     -0.64394292	      3.97243844	      6.72316083	      8.89944799	    -55.61269707	    -13.52281300	      7.14153137	     31.37021378	     -1.34283927	     14.16977528	    -30.42922435	      8.41616876	     11.14524296	     -0.27166994	      0.54786041	     -5.24909928
      3.65000000	     -5.49743104	      0.07533389	     14.90632201	      0.03143402	      0.92190886	     -0.64812040	      5.98598077	      5.61770822	      7.30643337	    -58.39990267	    -14.69758481	      5.85009251	     30.48059084	     -0.91836388	     13.52379145	    -30.40845866	      9.09083546	     10.76356064	     -0.45038045	      0.06786397	     -5.74710564
      3.66000000	     -5.50911432	      0.57073784	     14.47397445	      0.04070531	      0.92360623	     -0.65214280	      7.92696913	      4.54970449	      5.87106133	    -60.94125763	    -15.08649779	      4.80833104	     29.52283669	     -0.52730780	     12.97557128	    -30.27658691	      9.70187040	     10.33419813	     -0.62497020	     -0.34093529	     -6.23655745
      3.67000000	     -5.46561624	      1.00132461	     14.06083990	      0.04996723	      0.92549954	     -0.65596222	      9.76589256	      3.55599958	      4.54209853	    -63.20575521	    -14.79651335	      3.85535358	     28.48539567	     -0.19698544	     12.50516657	    -30.04205914	     10.21246858	      9.89556979	     -0.82363703	     -0.66472763	     -6.73895694
      3.68000000	     -5.39898921	      1.35029722	     13.64110790	      0.05923762	      0.92750915	     -0.65949004	     11.53860054	      2.67514275	      3.32150123	    -65.19196253	    -13.87844279	      2.95660384	     27.40189006	      0.04018193	     12.07912872	    -29.70541018	     10.68340864	      9.48273271	     -1.00681316	     -0.90236379	     -7.22679314
      3.69000000	     -5.29484211	      1.60316523	     13.21530896	      0.06847200	      0.92960257	     -0.66270402	     13.23474943	      1.93566791	      2.16054332	    -66.89046487	    -12.52406280	      1.89882213	     26.28746496	      0.16531882	     11.68603193	    -29.30994477	     11.08445388	      9.06374376	     -1.19795162	     -1.03651542	     -7.65843911
      3.70000000	     -5.18052578	      1.76866622	     12.77027490	      0.07770093	      0.93175045	     -0.66555920	     14.87666589	      1.34058920	      1.05960337	    -68.28730459	    -10.93244825	      0.83239180	     25.14506670	      0.17360676	     11.28890172	    -28.82299308	     11.46399495	      8.71947531	     -1.36747372	     -1.08985865	     -8.05767084
      3.71000000	     -5.06101103	      1.84732550	     12.29852155	      0.08690657	      0.93391643	     -0.66803614	     16.46727208	      0.90232428	      0.01018139	    -69.37856476	     -9.24483642	     -0.24387126	     23.98385770	      0.06294781	     10.87262743	    -28.25520905	     11.82055724	      8.43012449	     -1.51647858	     -1.06622686	     -8.41966246
      3.72000000	     -4.93923296	      1.84094858	     11.81067550	      0.09607044	      0.93607290	     -0.67016188	     18.00537868	      0.62094774	     -1.00746222	    -70.16424787	     -7.55602123	     -1.25720025	     22.81253018	     -0.15810520	     10.44067796	    -27.62024373	     12.14475265	      8.20342568	     -1.64748570	     -0.96668817	     -8.75215023
      3.73000000	     -4.83089124	      1.78706167	     11.30420303	      0.10517720	      0.93818448	     -0.67197728	     19.50270993	      0.44872539	     -1.98726989	    -70.66333913	     -5.90951616	     -2.06403044	     21.63298256	     -0.44440954	      9.98901714	    -26.91257278	     12.43888606	      8.05235642	     -1.75426628	     -0.83247991	     -9.05483641
      3.74000000	     -4.70576325	      1.63338687	     10.79231932	      0.11422600	      0.94024197	     -0.67348687	     20.92488529	      0.44380154	     -2.96955651	    -70.86230941	     -4.37006094	     -2.77214241	     20.45969184	     -0.85137259	      9.50358450	    -26.19366752	     12.73491281	      7.91940494	     -1.86427957	     -0.59859640	     -9.36694691
      3.75000000	     -4.63853117	      1.43727655	     10.29063007	      0.12315062	      0.94213944	     -0.67478897	     22.35697946	      0.50260102	     -3.94929153	    -70.81150542	     -2.88714956	     -3.01848839	     19.35387269	     -1.28757090	      9.02078695	    -25.45472259	     13.00433898	      7.88501396	     -1.91305279	     -0.33694139	     -9.67687558
      3.76000000	     -4.51768228	      1.20791336	      9.77967821	      0.13206423	      0.94402596	     -0.67587857	     23.65130824	      0.63630714	     -4.93391587	    -70.48625084	     -1.55359990	     -3.28612719	     18.17733879	     -1.77412891	      8.50952392	    -24.67981363	     13.26817724	      7.81705444	     -2.02153594	     -0.03165262	    -10.01239157
      3.77000000	     -4.43779741	      0.96412462	      9.28898966	      0.14086956	      0.94573852	     -0.67685195	     24.92636893	      0.76899731	     -5.94172899	    -69.94299261	     -0.31834483	     -3.32962436	     17.05391562	     -2.25138058	      8.01781332	    -23.90840247	     13.50127151	      7.77634012	     -2.09247907	      0.28063150	    -10.35094482
      3.78000000	     -4.33806301	      0.69571832	      8.81376093	      0.14962409	      0.94735315	     -0.67772125	     26.10375101	      0.91483339	     -6.97644091	    -69.17805876	      0.80073687	     -3.13289746	     15.91481019	     -2.74272425	      7.54203144	    -23.13642898	     13.72859841	      7.73656093	     -2.18979280	      0.62759978	    -10.71110997
      3.79000000	     -4.25248211	      0.44738236	      8.34675554	      0.15831882	      0.94882306	     -0.67852663	     27.22430596	      1.00899507	     -8.00645301	    -68.23245633	      1.82892185	     -2.51014937	     14.77340889	     -3.19117678	      7.09639545	    -22.34358200	     13.91644708	      7.68998414	     -2.28325756	      0.95498645	    -11.05138349
      3.80000000	     -4.17781080	      0.20330820	      7.90874376	      0.16694320	      0.95009537	     -0.67929102	     28.28251221	      1.04516953	     -9.08114633	    -67.12454635	      2.74414519	     -1.85611026	     13.68310766	     -3.61482700	      6.63223239	    -21.61339821	     14.11353141	      7.63588286	     -2.37215245	      1.28165605	    -11.44159904
      3.81000000	     -4.09920295	     -0.03376560	      7.49083166	      0.17553730	      0.95121415	     -0.68001718	     29.25675175	      1.02405851	    -10.19031014	    -65.86024994	      3.51477151	     -1.16691445	     12.58835175	     -4.01080097	      6.20399469	    -20.88716224	     14.30621016	      7.56958616	     -2.46957650	      1.60821044	    -11.83571646
      3.82000000	     -4.02229346	     -0.24810864	      7.09064359	      0.18410319	      0.95215446	     -0.68071112	     30.15560018	      0.92963728	    -11.32247495	    -64.46857216	      4.16659399	     -0.46897761	     11.50090584	     -4.36412809	      5.78986616	    -20.17744369	     14.49742953	      7.48938005	     -2.56874092	      1.91618367	    -12.23505952
      3.83000000	     -3.94522197	     -0.46049308	      6.72933392	      0.19263678	      0.95291562	     -0.68138484	     30.97250861	      0.77707263	    -12.51456674	    -62.94946941	      4.66132656	     -0.04129047	     10.43543731	     -4.69540004	      5.40856511	    -19.50010185	     14.71228398	      7.42617415	     -2.66853237	      2.23053504	    -12.67717278
      3.84000000	     -3.86134686	     -0.62293405	      6.35251664	      0.20119064	      0.95350302	     -0.68195988	     31.70923434	      0.56386032	    -13.66585936	    -61.34052762	      5.08650633	      0.45158298	      9.34590198	     -4.96856227	      5.00518410	    -18.81863126	     14.92074802	      7.34835421	     -2.77562038	      2.49084119	    -13.07276703
      3.85000000	     -3.78047417	     -0.74157494	      5.95162406	      0.20975324	      0.95390505	     -0.68242018	     32.38180643	      0.31373436	    -14.75834869	    -59.64984684	      5.44725806	      0.96695978	      8.24018417	     -5.18809268	      4.58322464	    -18.12736941	     15.13543728	      7.25980083	     -2.88063287	      2.70539948	    -13.40168708
      3.86000000	     -3.72728231	     -0.87333471	      5.60403969	      0.21826283	      0.95407811	     -0.68281390	     33.01131471	      0.05306793	    -15.89112973	    -57.86144510	      5.68587566	      1.14065727	      7.21406025	     -5.40542026	      4.19885737	    -17.50298790	     15.38437184	      7.22894127	     -2.95245940	      2.93532215	    -13.77954733
      3.87000000	     -3.63228050	     -0.95415986	      5.20970416	      0.22681782	      0.95413640	     -0.68302451	     33.53429694	     -0.19208574	    -16.89392323	    -55.99538712	      5.80920038	      1.29069543	      6.11396041	     -5.57781213	      3.73359246	    -16.85908053	     15.66112651	      7.21157424	     -3.07222413	      3.11459406	    -14.10925051
      3.88000000	     -3.55984681	     -1.02337137	      4.82039240	      0.23535651	      0.95399326	     -0.68309168	     34.01964116	     -0.41335001	    -17.83055650	    -54.05100462	      5.86157672	      1.34982278	      5.04584453	     -5.73013618	      3.27601566	    -16.23210430	     15.94602969	      7.22402680	     -3.16613847	      3.27753253	    -14.40353310
      3.89000000	     -3.48977317	     -1.06829845	      4.42253973	      0.24390080	      0.95368576	     -0.68300920	     34.44898884	     -0.60414899	    -18.66352696	    -52.03402659	      5.84316038	      1.34272746	      3.97447152	     -5.85292764	      2.80370041	    -15.60699987	     16.23072146	      7.25538275	     -3.25835092	      3.41407505	    -14.66268198
      3.90000000	     -3.44298922	     -1.11052748	      4.03875706	      0.25243087	      0.95319625	     -0.68279061	     34.84211299	     -0.75518337	    -19.41689629	    -49.94195485	      5.75663523	      1.33291987	      2.94095332	     -5.96761510	      2.33683990	    -15.00269196	     16.47971580	      7.26965122	     -3.32313716	      3.54696994	    -14.90503741
      3.91000000	     -3.38698478	     -1.11670283	      3.65275912	      0.26098920	      0.95257898	     -0.68244018	     35.16326289	     -0.87954617	    -20.03974011	    -47.78421204	      5.65804745	      1.30644524	      1.88391809	     -6.03836591	      1.87183887	    -14.38810526	     16.71394395	      7.27297740	     -3.39639477	      3.64417265	    -15.13872465
      3.92000000	     -3.33854476	     -1.10165839	      3.28470750	      0.26956836	      0.95182057	     -0.68200237	     35.42824629	     -0.98890348	    -20.57143826	    -45.56879486	      5.56960878	      1.29191648	      0.83605416	     -6.07866306	      1.42514502	    -13.77705795	     16.92624530	      7.26580365	     -3.45752505	      3.72422871	    -15.36143758
      3.93000000	     -3.29497629	     -1.07430799	      2.94282617	      0.27816548	      0.95094092	     -0.68146239	     35.62748927	     -1.07931233	    -21.02668239	    -43.29200677	      5.50904347	      1.30743300	     -0.19374192	     -6.10208486	      0.99845087	    -13.18410089	     17.10861783	      7.26277848	     -3.50974282	      3.79384881	    -15.59291425
      3.94000000	     -3.25297054	     -1.02456884	      2.63202752	      0.28680332	      0.94994984	     -0.68087531	     35.75688021	     -1.17844212	    -21.42518465	    -40.97199060	      5.51727382	      1.34319431	     -1.20963908	     -6.09502759	      0.59424477	    -12.60929674	     17.28353835	      7.27823056	     -3.55456258	      3.85039097	    -15.82845165
